<svg  xmlns="http://www.w3.org/2000/svg" width="24" height="24"  
fill="#ffff" viewBox="0 0 24 24" >
<!--Boxicons v3.0 https://boxicons.com | License  https://docs.boxicons.com/free-->
<path d="m16.8,2.94l-2.04,2.04-.71-.71c-1.17-1.17-3.07-1.17-4.24,0l-1.42,1.41c-.19.19-.29.44-.29.71,0,.03.01.05.02.08l-5.83,5.83c-.39.39-.39,1.02,0,1.41l8,8c.2.2.45.29.71.29s.51-.1.71-.29l5.84-5.84s.03,0,.04,0c.27,0,.52-.11.71-.29l1.41-1.41c.57-.57.88-1.32.88-2.12s-.31-1.56-.88-2.12l-.71-.71,2.12-2.12c.57-.57.88-1.33.87-2.11.01-.89-.38-1.73-1.06-2.31-1.18-1-3-.88-4.14.26Zm-5.8,16.65l-6.59-6.59,4.92-4.92,6.59,6.59-4.92,4.92Zm8.71-13.9l-2.83,2.83c-.39.39-.39,1.02,0,1.41l1.41,1.42c.19.19.29.44.29.71s-.1.52-.29.71l-.71.71-7.07-7.07.71-.71c.39-.39,1.02-.39,1.41,0l1.41,1.41c.39.39,1.02.39,1.41,0l2.75-2.75c.4-.41,1.05-.47,1.43-.14.23.2.36.46.35.78,0,.26-.1.5-.29.69Z"></path>
</svg>